<?xml version="1.0" encoding="UTF-8"?> <svg xmlns="http://www.w3.org/2000/svg" viewBox="0 0 500 500"><g id="freepik--Floor--inject-101"><ellipse id="freepik--floor--inject-101" cx="248" cy="356.77" rx="243.71" ry="136.09" style="fill:#f5f5f5"></ellipse></g><g id="freepik--Shadow--inject-101"><ellipse id="freepik--shadow--inject-101" cx="101.22" cy="378.4" rx="51.82" ry="29.92" style="fill:#e0e0e0"></ellipse></g><g id="freepik--magnifying-glass--inject-101"><g id="freepik--Glass--inject-101"><g id="freepik--magnifying-glass--inject-101"><path d="M184.63,240h0c.51-1.2,1.82-2.07,3.8-2.31A13.84,13.84,0,0,1,200,242.64c1.2,1.59,1.49,3.14,1,4.34h0L168.05,333.1h0c-.63,1.82-2.49,3.13-5.4,3.49-5.54.67-12.75-2.4-16.1-6.86-1.76-2.34-2.09-4.6-1.23-6.31h0Z" style="fill:#455a64"></path><path d="M200,242.64c2.4,3.19,1.13,6.17-2.83,6.65a13.86,13.86,0,0,1-11.52-4.91c-2.4-3.19-1.13-6.17,2.83-6.65A13.84,13.84,0,0,1,200,242.64Z" style="fill:#37474f"></path><path d="M200.81,215a8.37,8.37,0,0,1,7,3,2.64,2.64,0,0,1,.59,2.62h0l-10.66,25h0a2.64,2.64,0,0,1-2.3,1.39,8.36,8.36,0,0,1-7-3,2.66,2.66,0,0,1-.59-2.63l10.66-25h0A2.66,2.66,0,0,1,200.81,215Z" style="fill:#0077FD"></path><path d="M200.81,215a8.37,8.37,0,0,1,7,3,2.64,2.64,0,0,1,.59,2.62h0l-10.66,25h0a2.64,2.64,0,0,1-2.3,1.39,8.36,8.36,0,0,1-7-3,2.66,2.66,0,0,1-.59-2.63l10.66-25h0A2.66,2.66,0,0,1,200.81,215Z" style="opacity:0.2"></path><path d="M193.6,227.93l.74.43s0,0,0,0l.11.07v0l.14.08.16.08a15.36,15.36,0,0,0,1.45.76,18.69,18.69,0,0,0,1.84.81,17.17,17.17,0,0,0,1.69.63,7.47,7.47,0,0,0,.89.26,6.5,6.5,0,0,0,1,.29c.34.1.65.18,1,.25a4.73,4.73,0,0,0,.73.15l.25,0,4.77-11.2h0a2.64,2.64,0,0,0-.59-2.62,5.66,5.66,0,0,0-1-1,36.53,36.53,0,0,1-9.17,1.57Z" style="opacity:0.2"></path><path d="M193.24,249l-34.69,87.44a15.3,15.3,0,0,0,4.09.13c2.91-.36,4.77-1.67,5.4-3.49h0L200.92,247c-.51,1.21-1.82,2.06-3.8,2.3A11.51,11.51,0,0,1,193.24,249Z" style="opacity:0.15"></path><path d="M301.62,111.46c0-.72-.06-1.43-.12-2.14s-.08-1.39-.15-2.08c0-.47-.09-.93-.15-1.39-.12-1.2-.29-2.39-.49-3.52-.09-.52-.18-1-.28-1.56s-.2-1-.31-1.45c-.3-1.31-.62-2.59-1-3.82-.19-.58-.37-1.16-.57-1.73a1.38,1.38,0,0,1-.08-.27c-.21-.57-.41-1.11-.63-1.64s-.49-1.25-.77-1.83-.39-.87-.62-1.29a6.58,6.58,0,0,0-.46-.92c-.18-.37-.37-.75-.59-1.11a1.88,1.88,0,0,0-.14-.24c-.18-.32-.37-.64-.56-1s-.27-.41-.39-.61a30.69,30.69,0,0,0-3.06-4l-.56-.64c-.16-.18-.32-.34-.48-.5s-.4-.41-.62-.62a18.77,18.77,0,0,0-1.84-1.65c-.3-.26-.62-.51-.94-.74s-.64-.48-1-.71c-.52-.37-1.05-.72-1.58-1l-.42-.26-.09-.07h0l-9.9-5.83h0l-.14-.08a31.53,31.53,0,0,0-15.77-4c-8.22,0-17.5,2.69-27.34,8.36C196.79,92.61,169.4,140,169.4,179c0,19.45,6.81,33.14,17.8,39.55l.11,0h0l9.92,5.81s0,0,0,0l.11.07v0l.14.08c.06,0,.11.06.16.08a15.36,15.36,0,0,0,1.45.76c.6.3,1.22.57,1.85.81a14.07,14.07,0,0,0,1.68.62,6,6,0,0,0,.89.27,6.5,6.5,0,0,0,1,.29c.34.1.65.18,1,.25a6.31,6.31,0,0,0,.73.15c.43.09.88.18,1.33.23a.81.81,0,0,0,.31.06c.52.08,1.06.16,1.58.21,9.11,1,19.7-1.61,31-8.15,33.79-19.5,61.18-66.95,61.18-105.94C301.67,113.31,301.65,112.39,301.62,111.46Zm-111.46,92a59.87,59.87,0,0,1-2.06-16c0-37,27-83.81,59.05-102.29a57.2,57.2,0,0,1,15-6.2,33,33,0,0,1,7.71-1,24.15,24.15,0,0,1,3.91.3l.11,0c6.55,7.75,7.51,20.17,7.51,26.8,0,37-27,83.81-59,102.28-8.14,4.7-16,7.19-22.69,7.19a15.6,15.6,0,0,1-4.13-.53h0A29.21,29.21,0,0,1,190.16,203.5Z" style="fill:#37474f"></path><path d="M292.87,111.63c0,19.63-7.63,42.05-19.58,61.53-.56.93-1.14,1.84-1.73,2.75s-1,1.56-1.53,2.34c-1.13,1.67-2.26,3.31-3.45,4.92q-.84,1.16-1.71,2.28c-.63.83-1.27,1.65-1.91,2.46-1.23,1.55-2.51,3.06-3.8,4.53-.85,1-1.72,1.95-2.59,2.88a99.59,99.59,0,0,1-22.74,18.58c-1.53.89-3,1.69-4.54,2.42A45.46,45.46,0,0,1,213.72,221a25.28,25.28,0,0,1-2.57.13c-.45,0-.87,0-1.3,0,0,0,0,0,0,0a19,19,0,0,1-2.43-.25c-.39-.06-.78-.12-1.15-.21s-.75-.16-1.12-.27a17.88,17.88,0,0,1-9.59-6.21,15.53,15.53,0,0,0,4.12.52c6.72,0,14.55-2.47,22.7-7.17,32-18.47,59-65.33,59-102.29,0-6.64-1-19-7.52-26.8l-.1,0c8.35,1.34,13.09,7,15.77,13.57a38.11,38.11,0,0,1,1.82,5.73c0,.11.05.21.07.32.09.35.18.71.24,1.07s.14.69.2,1a1.86,1.86,0,0,1,0,.27c.07.37.14.74.2,1.1.21,1.37.38,2.7.49,4,0,.38.07.73.09,1.08s0,.54.06.8c0,.11,0,.22,0,.33,0,.29,0,.57.05.85a1.77,1.77,0,0,1,0,.23q0,.54,0,1C292.87,110.4,292.87,111,292.87,111.63Z" style="opacity:0.25"></path><path d="M196.38,224l-9.18-5.4c-11-6.43-17.8-20.11-17.8-39.53,0-17.39,5.45-36.46,14.47-54l10.46,6c-9,17.5-15,36.36-15,53.76C179.31,203.89,185.79,217.39,196.38,224Z" style="fill:#263238"></path><path d="M283.85,74.71l-.09-.07h0l-9.9-5.82h0l-.14-.09a31.5,31.5,0,0,0-15.77-4c-8.22,0-17.5,2.69-27.34,8.36-18.72,10.81-35.47,30.21-46.68,52l10.41,6.12-.23.43c11.25-21.54,27.92-41,46.44-52.71,16.76-10.56,32.67-10.71,43.78-4Z" style="fill:#455a64"></path></g><path d="M287.55,108.49c0,37-27,83.81-59.05,102.29a56.86,56.86,0,0,1-15,6.2,33,33,0,0,1-7.71,1,22,22,0,0,1-7.83-1.34c-4-3.34-6.38-8.16-7.82-13.12a59.87,59.87,0,0,1-2.06-16c0-37,27-83.81,59.05-102.29a57.2,57.2,0,0,1,15-6.2,33,33,0,0,1,7.71-1,22.05,22.05,0,0,1,7.83,1.33c4,3.33,6.38,8.17,7.82,13.12A59.87,59.87,0,0,1,287.55,108.49Z" style="fill:#0077FD;opacity:0.1"></path><path d="M205.81,218a33,33,0,0,0,7.71-1,56.86,56.86,0,0,0,15-6.2c32-18.48,59.05-65.33,59.05-102.29a59.87,59.87,0,0,0-2.06-16c-1.44-4.94-3.83-9.77-7.79-13.1l-.38-.13c-.35-.13-.7-.24-1.07-.35l-.63-.17c-.36-.1-.74-.17-1.11-.25l-.66-.13h-.07l.07,0c6.56,7.75,7.52,20.16,7.52,26.8,0,37-27,83.82-59,102.29-8.15,4.7-16,7.17-22.7,7.17a15.53,15.53,0,0,1-4.12-.52l.06.08a19.75,19.75,0,0,0,2.41,2.43A22,22,0,0,0,205.81,218Z" style="fill:#fff;opacity:0.30000000000000004"></path></g></g><g id="freepik--pyramid-chart--inject-101"><g id="freepik--pyramid-chart--inject-101"><path d="M360.64,126.13l-45.19,26.09c-2.42,1.39-4.38-.09-4.38-3.32V109.7c0-3.23,2-7,4.38-8.38l45.19-26.08c2.42-1.4,4.38.08,4.38,3.31v39.21C365,121,363.06,124.73,360.64,126.13Z" style="fill:#fafafa"></path><path d="M313.71,153.22a2.66,2.66,0,0,1-1.36-.36c-1.12-.64-1.76-2.08-1.76-4V109.7c0-3.38,2.08-7.32,4.62-8.79L360.4,74.82a3.25,3.25,0,0,1,3.34-.23c1.12.65,1.76,2.09,1.76,4v39.21c0,3.37-2.07,7.32-4.62,8.79L315.7,152.63A4,4,0,0,1,313.71,153.22Zm48.67-78a3,3,0,0,0-1.5.46L315.7,101.74c-2.29,1.32-4.15,4.89-4.15,8v39.2c0,1.52.47,2.66,1.28,3.13a2.35,2.35,0,0,0,2.38-.23l45.19-26.09c2.28-1.32,4.14-4.88,4.14-7.95V78.55c0-1.52-.47-2.66-1.28-3.13A1.74,1.74,0,0,0,362.38,75.2Z" style="fill:#e0e0e0"></path><polygon points="350.73 96.75 341.51 129.91 359.95 119.26 350.73 96.75" style="fill:#0077FD"></polygon><polygon points="350.73 96.75 341.51 129.91 359.95 119.26 350.73 96.75" style="fill:#fff;opacity:0.30000000000000004"></polygon><polygon points="338.05 94.47 328.82 137.23 347.27 126.58 338.05 94.47" style="fill:#0077FD"></polygon><polygon points="325.47 116.59 316.25 144.49 334.69 133.85 325.47 116.59" style="fill:#0077FD"></polygon><polygon points="325.47 116.59 316.25 144.49 334.69 133.85 325.47 116.59" style="opacity:0.30000000000000004"></polygon><path d="M318,107.64l-1.45.84c-.17.09-.3,0-.3-.23v-2.37a.71.71,0,0,1,.3-.57l1.45-.84c.17-.1.3,0,.3.23v2.36A.73.73,0,0,1,318,107.64Z" style="fill:#0077FD"></path><path d="M318,107.64l-1.45.84c-.17.09-.3,0-.3-.23v-2.37a.71.71,0,0,1,.3-.57l1.45-.84c.17-.1.3,0,.3.23v2.36A.73.73,0,0,1,318,107.64Z" style="opacity:0.30000000000000004"></path><path d="M318,112.2l-1.45.84c-.17.1-.3,0-.3-.23v-2.36a.73.73,0,0,1,.3-.58L318,109c.17-.09.3,0,.3.23v2.37A.71.71,0,0,1,318,112.2Z" style="fill:#0077FD"></path><path d="M318,116.76l-1.45.84c-.17.1-.3,0-.3-.22V115a.69.69,0,0,1,.3-.57l1.45-.84c.17-.1.3,0,.3.22v2.37A.69.69,0,0,1,318,116.76Z" style="fill:#0077FD"></path><path d="M318,116.76l-1.45.84c-.17.1-.3,0-.3-.22V115a.69.69,0,0,1,.3-.57l1.45-.84c.17-.1.3,0,.3.22v2.37A.69.69,0,0,1,318,116.76Z" style="fill:#fff;opacity:0.30000000000000004"></path></g></g><g id="freepik--Gears--inject-101"><g id="freepik--Gear--inject-101"><path d="M239.43,257.77a.59.59,0,0,0,.33-.43,23.4,23.4,0,0,0,.48-2.47,20.2,20.2,0,0,0,.21-2.37c0-.2-.1-.31-.24-.26l-1.64.5a11.48,11.48,0,0,0-.52-3.26l1.4-2a.64.64,0,0,0,.11-.55,7.14,7.14,0,0,0-1.88-2.7c-.1-.08-.26,0-.38.17l-1.39,2a4.18,4.18,0,0,0-2.26-.72l.34-2.38c0-.21-.05-.35-.18-.35a7.3,7.3,0,0,0-1.64.32,9.84,9.84,0,0,0-1.7.7.72.72,0,0,0-.29.49l-.34,2.38a13.24,13.24,0,0,0-2.66,2.23l-.92-1.33c-.08-.11-.24-.08-.37.07a25.16,25.16,0,0,0-2.84,4.14.57.57,0,0,0,0,.53l.92,1.32a22.78,22.78,0,0,0-1.51,3.88l-1.64.5a.62.62,0,0,0-.34.43c-.2.82-.36,1.64-.48,2.47a22.47,22.47,0,0,0-.2,2.38c0,.19.1.3.24.26l1.64-.5a11.27,11.27,0,0,0,.52,3.24l-1.4,2a.65.65,0,0,0-.11.55,7,7,0,0,0,1.88,2.7c.1.08.26,0,.38-.16l1.39-2a4.26,4.26,0,0,0,2.25.72l-.33,2.38c0,.2.05.35.18.34a7.25,7.25,0,0,0,1.64-.31,9.89,9.89,0,0,0,1.7-.71.68.68,0,0,0,.29-.49l.34-2.38a13.18,13.18,0,0,0,2.66-2.22l.92,1.32c.08.12.24.09.37-.06a24.61,24.61,0,0,0,2.83-4.15.55.55,0,0,0,0-.53l-.92-1.32a23,23,0,0,0,1.51-3.87ZM231,263.85c-4.28,3.33-7.22-.89-4.94-7.11a10.6,10.6,0,0,1,3.17-4.64c4.28-3.34,7.22.89,4.94,7.11A10.6,10.6,0,0,1,231,263.85Z" style="fill:#e6e6e6"></path><path d="M251.92,258.28A.36.36,0,0,0,252,258a10.79,10.79,0,0,0-.2-1.42,7.21,7.21,0,0,0-.39-1.24c0-.07-.11-.07-.18,0l-1.11,1a3.37,3.37,0,0,0-1.09-1.28l.58-1.65c0-.11,0-.22,0-.25a3.59,3.59,0,0,0-2-.4c-.07,0-.15.09-.19.2l-.58,1.65a4.88,4.88,0,0,0-1.78.7l-.29-1.31a.1.1,0,0,0-.16-.06,11.73,11.73,0,0,0-1.15.93,13.52,13.52,0,0,0-1.1,1.16.36.36,0,0,0-.09.29l.29,1.31a13.82,13.82,0,0,0-1.43,2.27l-1-.19c-.06,0-.15,0-.19.15a17.44,17.44,0,0,0-1.18,3.36c0,.11,0,.2.07.21l1,.2a11.64,11.64,0,0,0-.25,2.52l-1.1,1a.36.36,0,0,0-.12.29,9.16,9.16,0,0,0,.2,1.42,7.21,7.21,0,0,0,.39,1.24c0,.07.11.07.18,0l1.11-1a3.22,3.22,0,0,0,1.09,1.28l-.58,1.66c0,.1,0,.21,0,.24a3.59,3.59,0,0,0,2,.4c.07,0,.15-.09.19-.2l.57-1.64a5.14,5.14,0,0,0,1.79-.71l.29,1.31a.09.09,0,0,0,.16.06,10.42,10.42,0,0,0,1.15-.93,13.38,13.38,0,0,0,1.1-1.15.43.43,0,0,0,.09-.3l-.29-1.3a14.35,14.35,0,0,0,1.43-2.28l1,.2c.06,0,.15-.06.19-.16a18.4,18.4,0,0,0,1.18-3.36c0-.11,0-.2-.07-.21l-1-.2a11.64,11.64,0,0,0,.25-2.52Zm-5,7.08c-2.29,3.18-5.12,2.54-4.93-1.18a8,8,0,0,1,1.48-4.09c2.3-3.17,5.12-2.53,4.94,1.19A7.85,7.85,0,0,1,246.92,265.36Z" style="fill:#e6e6e6"></path><path d="M255.14,236.08a.36.36,0,0,0,.12-.29,9.34,9.34,0,0,0-.2-1.42,7.21,7.21,0,0,0-.39-1.24c0-.07-.11-.07-.18,0l-1.11,1a3.47,3.47,0,0,0-1.08-1.29l.57-1.64c0-.11,0-.22,0-.25a3.59,3.59,0,0,0-2-.4c-.07,0-.15.09-.19.2l-.57,1.64a5.14,5.14,0,0,0-1.79.71l-.29-1.31a.1.1,0,0,0-.16-.06,11.73,11.73,0,0,0-1.15.93,15,15,0,0,0-1.1,1.15.38.38,0,0,0-.08.3l.29,1.31a13.23,13.23,0,0,0-1.44,2.27l-1-.2c-.06,0-.14.06-.19.16A18.14,18.14,0,0,0,242,241c0,.11,0,.2.07.21l1,.2a11.64,11.64,0,0,0-.25,2.52l-1.1,1a.36.36,0,0,0-.12.29,9.16,9.16,0,0,0,.2,1.42,7.21,7.21,0,0,0,.39,1.24c0,.07.11.07.18,0l1.11-1a3.39,3.39,0,0,0,1.09,1.28l-.58,1.66c0,.1,0,.21,0,.24a3.59,3.59,0,0,0,2,.4c.07,0,.15-.09.19-.2l.58-1.64a5.3,5.3,0,0,0,1.78-.71l.29,1.31a.1.1,0,0,0,.16.06,9.57,9.57,0,0,0,1.15-.93,13.38,13.38,0,0,0,1.1-1.15.38.38,0,0,0,.09-.3l-.29-1.3a14.35,14.35,0,0,0,1.43-2.28l1,.2c.06,0,.15-.06.2-.16a18.36,18.36,0,0,0,1.17-3.36c0-.11,0-.2-.07-.21l-1-.2a11.64,11.64,0,0,0,.25-2.52Zm-5,7.08c-2.3,3.18-5.12,2.54-4.94-1.18a7.92,7.92,0,0,1,1.49-4.09c2.29-3.17,5.12-2.54,4.93,1.19A8,8,0,0,1,250.15,243.16Z" style="fill:#e6e6e6"></path></g></g><g id="freepik--small-charts--inject-101"><g id="freepik--Chart--inject-101"><path d="M142.31,123.85c-.17.09-.31,0-.31-.3V84.9a.82.82,0,0,1,.31-.66c.17-.1.31,0,.31.3v38.65A.84.84,0,0,1,142.31,123.85Z" style="fill:#e0e0e0"></path><path d="M182.6,100.59l-44,25.39c-.17.1-.3,0-.3-.3a.81.81,0,0,1,.3-.65l44-25.39c.17-.1.3,0,.3.29A.82.82,0,0,1,182.6,100.59Z" style="fill:#e0e0e0"></path><polygon points="149.9 87.73 144.5 90.85 144.5 117.99 149.9 114.87 149.9 87.73" style="fill:#f5f5f5"></polygon><polygon points="157.57 102.13 152.17 105.25 152.17 113.56 157.57 110.44 157.57 102.13" style="fill:#ebebeb"></polygon><polygon points="165.24 72.42 159.84 75.54 159.84 109.13 165.24 106.01 165.24 72.42" style="fill:#f5f5f5"></polygon><polygon points="172.91 81.41 167.51 84.53 167.51 104.7 172.91 101.58 172.91 81.41" style="fill:#e0e0e0"></polygon><polygon points="180.58 84.8 175.18 87.92 175.18 100.27 180.58 97.16 180.58 84.8" style="fill:#f5f5f5"></polygon></g><g id="freepik--chart--inject-101"><path d="M300.42,180.63l0,12.28L293,204.82c-2.63-3.38-1.86-11.81,2.25-18.47A16.32,16.32,0,0,1,300.42,180.63Z" style="fill:#e0e0e0"></path><path d="M310.56,191.46c-1.48,7.46-6.63,14.4-11.7,15.64a5,5,0,0,1-5-1.24l7.51-12.14Z" style="fill:#f0f0f0"></path><path d="M310.75,190.17l-8.84,2.16,5-13.05C310,180.47,311.53,184.65,310.75,190.17Z" style="fill:#e0e0e0"></path><path d="M305.94,179.18,301.46,191V180A6.31,6.31,0,0,1,305.94,179.18Z" style="fill:#f0f0f0"></path></g></g><g id="freepik--pie-chart--inject-101"><path d="M365.6,425.42c-9.65,0-19.29-2.12-26.63-6.36s-11.18-9.72-11.18-15.66,4-11.49,11.18-15.65c14.68-8.48,38.57-8.48,53.26,0h0c7.2,4.16,11.17,9.72,11.17,15.65s-4,11.5-11.17,15.66C384.88,423.3,375.24,425.42,365.6,425.42Zm0-43.07c-9.47,0-18.94,2.08-26.15,6.24-6.89,4-10.69,9.24-10.69,14.81s3.8,10.84,10.69,14.82c14.42,8.32,37.87,8.32,52.29,0,6.89-4,10.69-9.24,10.69-14.82s-3.8-10.83-10.69-14.81h0C384.54,384.43,375.06,382.35,365.6,382.35Z" style="fill:#0077FD"></path><g id="freepik--pie-chart--inject-101"><path d="M366.59,395.53v6.28L360.39,385v-6.27h0Z" style="fill:#263238"></path><polygon points="366.6 395.53 366.6 401.81 392.18 392.93 392.18 386.66 366.6 395.53" style="fill:#37474f"></polygon><path d="M360.39,378.68l6.21,16.85,25.58-8.87C385.16,380.53,373,377.47,360.39,378.68Z" style="fill:#455a64"></path><path d="M333.67,396.7a1.21,1.21,0,0,0,0,.19v-.19Z" style="fill:#0077FD"></path><path d="M364.05,403.45l-3.8,17.87c-15.51-1.51-26.71-9.36-26.58-18.32h0v-6.12c0,8.89,11.18,16.65,26.59,18.16l2.61-12.28Z" style="fill:#0077FD"></path><path d="M364.05,403.45l-3.8,17.87c-15.51-1.51-26.71-9.36-26.58-18.32h0v-6.12c0,8.89,11.18,16.65,26.59,18.16l2.61-12.28Z" style="opacity:0.4"></path><path d="M363.16,415.25v6.28A49.58,49.58,0,0,0,382,419c7.31-2.54,12.47-6.57,14.53-11.34a11.22,11.22,0,0,0,1-4.39c0-.59,0-6.48,0-6.48s-1.77-.14-3.84-2.35l-4.79,1.66L367,403.66Z" style="fill:#0077FD"></path><path d="M363.16,415.25v6.28A49.58,49.58,0,0,0,382,419c7.31-2.54,12.47-6.57,14.53-11.34a11.22,11.22,0,0,0,1-4.39c0-.59,0-6.48,0-6.48s-1.77-.14-3.84-2.35l-4.79,1.66L367,403.66Z" style="fill:#fff;opacity:0.6000000000000001"></path><polygon points="344.07 389.52 363.13 400.52 363.13 394.25 344.07 383.25 344.07 389.52" style="fill:#0077FD"></polygon><polygon points="344.07 389.52 363.13 400.52 363.13 394.25 344.07 383.25 344.07 389.52" style="opacity:0.1"></polygon><path d="M333.9,394.62c-2.09,9.81,9.64,18.79,26.35,20.43l3.8-17.87L342,384.45C337.39,387.33,334.74,390.67,333.9,394.62Z" style="fill:#0077FD"></path><path d="M333.9,394.62c-2.09,9.81,9.64,18.79,26.35,20.43l3.8-17.87L342,384.45C337.39,387.33,334.74,390.67,333.9,394.62Z" style="opacity:0.30000000000000004"></path><path d="M363.27,414.73l-.11.52A49.38,49.38,0,0,0,382,412.67c7.31-2.54,12.47-6.56,14.53-11.34,1.95-4.5.92-9.16-2.88-13.22l-4.79,1.66L367,397.38Z" style="fill:#0077FD"></path><path d="M363.27,414.73l-.11.52A49.38,49.38,0,0,0,382,412.67c7.31-2.54,12.47-6.56,14.53-11.34,1.95-4.5.92-9.16-2.88-13.22l-4.79,1.66L367,397.38Z" style="fill:#fff;opacity:0.75"></path><path d="M344.07,383.25l19.06,11L357.52,379A39.07,39.07,0,0,0,344.07,383.25Z" style="fill:#0077FD"></path><polygon points="364.05 403.45 364.05 397.18 360.25 415.05 360.25 421.32 364.05 403.45" style="fill:#0077FD"></polygon><polygon points="364.05 403.45 364.05 397.18 360.25 415.05 360.25 421.32 364.05 403.45" style="opacity:0.55"></polygon><polygon points="388.36 369.26 384.21 371.66 388.36 374.06 392.51 371.66 388.36 369.26" style="fill:#0077FD"></polygon><polygon points="388.36 369.26 384.21 371.66 388.36 374.06 392.51 371.66 388.36 369.26" style="opacity:0.30000000000000004"></polygon><polygon points="392.51 371.66 392.51 374.06 388.36 376.46 388.36 374.06 392.51 371.66" style="fill:#0077FD"></polygon><polygon points="392.51 371.66 392.51 374.06 388.36 376.46 388.36 374.06 392.51 371.66" style="opacity:0.4"></polygon><polygon points="388.36 374.06 388.36 376.46 384.21 374.06 384.21 371.66 388.36 374.06" style="fill:#0077FD"></polygon><polygon points="388.36 374.06 388.36 376.46 384.21 374.06 384.21 371.66 388.36 374.06" style="opacity:0.55"></polygon><path d="M394.7,367.4l15.38-8.88a3.58,3.58,0,0,1,3.22-.06c.86.5.82,1.33-.1,1.86l-15.38,8.88a3.55,3.55,0,0,1-3.22.06C393.73,368.77,393.78,367.93,394.7,367.4Z" style="fill:#e0e0e0"></path><polygon points="397.71 374.67 393.56 377.06 397.71 379.46 401.87 377.06 397.71 374.67" style="fill:#0077FD"></polygon><polygon points="397.71 374.67 393.56 377.06 397.71 379.46 401.87 377.06 397.71 374.67" style="fill:#fff;opacity:0.88"></polygon><polygon points="401.87 377.06 401.87 379.46 397.71 381.86 397.71 379.46 401.87 377.06" style="fill:#0077FD"></polygon><polygon points="401.87 377.06 401.87 379.46 397.71 381.86 397.71 379.46 401.87 377.06" style="fill:#fff;opacity:0.75"></polygon><polygon points="397.71 379.46 397.71 381.86 393.56 379.46 393.56 377.06 397.71 379.46" style="fill:#0077FD"></polygon><polygon points="397.71 379.46 397.71 381.86 393.56 379.46 393.56 377.06 397.71 379.46" style="fill:#fff;opacity:0.6000000000000001"></polygon><path d="M404.05,372.81l15.38-8.89a3.6,3.6,0,0,1,3.23-.06c.86.5.81,1.33-.11,1.86l-15.38,8.89a3.55,3.55,0,0,1-3.22.05C403.09,374.17,403.13,373.33,404.05,372.81Z" style="fill:#e0e0e0"></path><polygon points="407.07 380.06 402.92 382.46 407.07 384.86 411.22 382.46 407.07 380.06" style="fill:#0077FD"></polygon><polygon points="407.07 380.06 402.92 382.46 407.07 384.86 411.22 382.46 407.07 380.06" style="fill:#fff;opacity:0.30000000000000004"></polygon><polygon points="411.22 382.46 411.22 384.86 407.07 387.26 407.07 384.86 411.22 382.46" style="fill:#0077FD"></polygon><polygon points="407.07 384.86 407.07 387.26 402.92 384.86 402.92 382.46 407.07 384.86" style="fill:#0077FD"></polygon><polygon points="407.07 384.86 407.07 387.26 402.92 384.86 402.92 382.46 407.07 384.86" style="opacity:0.1"></polygon><path d="M413.41,378.21l15.38-8.89a3.58,3.58,0,0,1,3.22-.06c.86.5.81,1.33-.1,1.86L416.52,380a3.55,3.55,0,0,1-3.22.05C412.44,379.57,412.49,378.74,413.41,378.21Z" style="fill:#e0e0e0"></path><polygon points="416.42 385.46 412.27 387.86 416.42 390.26 420.57 387.86 416.42 385.46" style="fill:#455a64"></polygon><polygon points="420.57 387.86 420.57 390.26 416.42 392.66 416.42 390.26 420.57 387.86" style="fill:#37474f"></polygon><polygon points="416.42 390.26 416.42 392.66 412.27 390.26 412.27 387.86 416.42 390.26" style="fill:#263238"></polygon><path d="M422.76,383.61l15.38-8.89a3.55,3.55,0,0,1,3.22-.05c.86.49.82,1.32-.1,1.85l-15.38,8.89a3.58,3.58,0,0,1-3.22.06C421.8,385,421.84,384.14,422.76,383.61Z" style="fill:#e0e0e0"></path></g></g><g id="freepik--bar-chart--inject-101"><g id="freepik--bar-graph--inject-101"><g style="opacity:0.30000000000000004"><path d="M348.61,357.91a.46.46,0,0,1-.23-.06l-29.62-17.1a.48.48,0,0,1-.23-.4.45.45,0,0,1,.23-.39l37-21.38a.45.45,0,0,1,.45,0l29.63,17.1a.45.45,0,0,1,.22.4.44.44,0,0,1-.22.39l-37,21.38A.46.46,0,0,1,348.61,357.91ZM319.9,340.35l28.71,16.58,36.12-20.85L356,319.5Z" style="fill:#0077FD"></path></g><polygon points="348.61 353.18 348.61 220.75 326.39 207.92 326.39 340.35 348.61 353.18" style="fill:#0077FD"></polygon><polygon points="348.61 353.18 348.61 220.75 326.39 207.92 326.39 340.35 348.61 353.18" style="opacity:0.2"></polygon><polygon points="348.61 353.18 378.23 336.08 378.24 203.65 348.61 220.75 348.61 353.18" style="fill:#0077FD"></polygon><polygon points="378.24 203.65 356.02 190.82 326.39 207.92 348.61 220.75 378.24 203.65" style="fill:#0077FD"></polygon><polygon points="378.24 203.65 356.02 190.82 326.39 207.92 348.61 220.75 378.24 203.65" style="fill:#fff;opacity:0.25"></polygon><path d="M378.24,203.65l-29.93,16.5-9.72-5.43-12.2-6.8,12,7.18,9.83,5.86c-.24,3.34-.3,118.67-.26,122a89.9,89.9,0,0,0,.66,10.22,89.89,89.89,0,0,0,.65-10.22c0-3.23,0-118.45-.24-121.68Z" style="fill:#fff;opacity:0.30000000000000004"></path><g style="opacity:0.30000000000000004"><path d="M293.06,390a.49.49,0,0,1-.23-.06l-29.62-17.1a.48.48,0,0,1-.23-.4.45.45,0,0,1,.23-.39l37-21.38a.47.47,0,0,1,.46,0l29.62,17.1a.45.45,0,0,1,0,.79l-37,21.38A.46.46,0,0,1,293.06,390Zm-28.71-17.56L293.06,389l36.12-20.85-28.71-16.58Z" style="fill:#0077FD"></path></g><polygon points="293.06 385.25 293.06 291.18 270.84 278.35 270.84 372.42 293.06 385.25" style="fill:#0077FD"></polygon><polygon points="293.06 385.25 293.06 291.18 270.84 278.35 270.84 372.42 293.06 385.25" style="fill:#fff;opacity:0.1"></polygon><polygon points="293.06 385.25 322.69 368.14 322.69 274.08 293.06 291.18 293.06 385.25" style="fill:#0077FD"></polygon><polygon points="293.06 385.25 322.69 368.14 322.69 274.08 293.06 291.18 293.06 385.25" style="fill:#fff;opacity:0.30000000000000004"></polygon><polygon points="322.69 274.08 300.47 261.25 270.84 278.35 293.06 291.18 322.69 274.08" style="fill:#0077FD"></polygon><polygon points="322.69 274.08 300.47 261.25 270.84 278.35 293.06 291.18 322.69 274.08" style="fill:#fff;opacity:0.55"></polygon><path d="M293.45,291.72l29.24-17.64-29.93,16.5c-3.23-1.83-6.47-3.63-9.71-5.43l-12.21-6.8,12,7.17c3.28,2,6.55,3.94,9.84,5.87-.1,3.46-.21,28.7-.24,32.16s-.05,37,0,40.52.08,7.06.19,10.59.24,7.06.46,10.59c.23-3.53.37-7.06.46-10.59s.17-7.06.19-10.59,0-37,0-40.52C293.66,320.2,293.55,295.07,293.45,291.72Z" style="fill:#fff;opacity:0.30000000000000004"></path><g style="opacity:0.30000000000000004"><path d="M237.52,422.05a.46.46,0,0,1-.23-.06l-29.63-17.1a.47.47,0,0,1-.22-.4.44.44,0,0,1,.22-.39l37-21.38a.45.45,0,0,1,.45,0l29.63,17.1a.45.45,0,0,1,.22.4.44.44,0,0,1-.22.39l-37,21.38A.43.43,0,0,1,237.52,422.05ZM208.8,404.49l28.72,16.58,36.12-20.85-28.72-16.58Z" style="fill:#0077FD"></path></g><polygon points="237.52 417.32 237.51 353.18 215.29 340.35 215.3 404.49 237.52 417.32" style="fill:#0077FD"></polygon><polygon points="237.52 417.32 237.51 353.18 215.29 340.35 215.3 404.49 237.52 417.32" style="opacity:0.45"></polygon><polygon points="237.52 417.32 267.14 400.21 267.15 336.08 237.51 353.18 237.52 417.32" style="fill:#0077FD"></polygon><polygon points="237.52 417.32 267.14 400.21 267.15 336.08 237.51 353.18 237.52 417.32" style="opacity:0.30000000000000004"></polygon><polygon points="267.15 336.08 244.93 323.25 215.29 340.35 237.51 353.18 267.15 336.08" style="fill:#0077FD"></polygon><polygon points="267.15 336.08 244.93 323.25 215.29 340.35 237.51 353.18 267.15 336.08" style="opacity:0.15"></polygon><path d="M267.15,336.08l-29.93,16.49-9.72-5.42-12.21-6.8,12,7.17,9.83,5.87c-.23,2-.29,55.6-.25,57.63a33.69,33.69,0,0,0,.66,6.3,34.54,34.54,0,0,0,.65-6.3c0-1.93,0-55.39-.22-57.32Z" style="fill:#fff;opacity:0.30000000000000004"></path><g style="opacity:0.30000000000000004"><path d="M404.15,325.84a.46.46,0,0,1-.22-.06l-29.63-17.1a.47.47,0,0,1-.23-.4.45.45,0,0,1,.23-.39l37-21.38a.47.47,0,0,1,.46,0l29.62,17.1a.45.45,0,0,1,0,.79l-37,21.38A.46.46,0,0,1,404.15,325.84Zm-28.71-17.56,28.71,16.58L440.27,304l-28.71-16.58Z" style="fill:#0077FD"></path></g><polygon points="404.15 321.11 404.15 128.42 381.93 115.59 381.94 308.28 404.15 321.11" style="fill:#0077FD"></polygon><polygon points="404.15 321.11 404.15 128.42 381.93 115.59 381.94 308.28 404.15 321.11" style="fill:#fff;opacity:0.30000000000000004"></polygon><polygon points="404.15 321.11 433.78 304.01 433.78 111.32 404.15 128.42 404.15 321.11" style="fill:#0077FD"></polygon><polygon points="404.15 321.11 433.78 304.01 433.78 111.32 404.15 128.42 404.15 321.11" style="fill:#fff;opacity:0.55"></polygon><polygon points="433.78 111.32 411.56 98.49 381.93 115.59 404.15 128.42 433.78 111.32" style="fill:#0077FD"></polygon><polygon points="433.78 111.32 411.56 98.49 381.93 115.59 404.15 128.42 433.78 111.32" style="fill:#fff;opacity:0.75"></polygon><path d="M404.54,129l29.24-17.65-29.93,16.5c-3.22-1.83-6.47-3.63-9.71-5.43l-12.21-6.8,12,7.18c3.28,2,6.55,3.93,9.85,5.86-.11,3.92-.22,7.84-.25,11.76s0,152.79,0,156.78.08,8,.2,12,.23,8,.46,12c.22-4,.36-8,.45-12s.18-8,.2-12,0-152.79,0-156.78C404.75,136.59,404.65,132.78,404.54,129Z" style="fill:#fff;opacity:0.30000000000000004"></path></g></g><g id="freepik--speech-bubbles--inject-101"><g id="freepik--speech-bubble--inject-101"><path d="M353.62,151.44l-24.89,14.37a5.24,5.24,0,0,0-2.37,4.1V190.1c0,1.51,1.06,2.12,2.37,1.37l9.17-5.31,2.46,4.25a1.13,1.13,0,0,0,2.06-.2l2.89-8.32,8.31-4.79A5.24,5.24,0,0,0,356,173V152.81C356,151.3,354.93,150.69,353.62,151.44Z" style="fill:#fafafa"></path><path d="M327.67,192.33a1.69,1.69,0,0,1-.88-.24,2.15,2.15,0,0,1-1-2V169.91a5.76,5.76,0,0,1,2.63-4.56L353.35,151h0a2.2,2.2,0,0,1,2.21-.17,2.18,2.18,0,0,1,1,2V173a5.74,5.74,0,0,1-2.64,4.56l-8.13,4.69-2.82,8.14a1.68,1.68,0,0,1-1.43,1.12,1.71,1.71,0,0,1-1.61-.83l-2.18-3.79-8.71,5A2.74,2.74,0,0,1,327.67,192.33Zm27-40.68a1.71,1.71,0,0,0-.79.25h0L329,166.27a4.74,4.74,0,0,0-2.11,3.64V190.1a1.2,1.2,0,0,0,.43,1.07,1.18,1.18,0,0,0,1.14-.16l9.64-5.57,2.72,4.71a.6.6,0,0,0,.58.3.61.61,0,0,0,.52-.41l2.95-8.52,8.48-4.88a4.73,4.73,0,0,0,2.1-3.64V152.81a1.19,1.19,0,0,0-.42-1.07A.69.69,0,0,0,354.67,151.65Z" style="fill:#e0e0e0"></path><path d="M331.92,183.67a.46.46,0,0,1-.4-.23.45.45,0,0,1,.17-.62l18.51-10.69a.46.46,0,1,1,.46.79l-18.52,10.69A.46.46,0,0,1,331.92,183.67Z" style="fill:#e0e0e0"></path><path d="M331.92,179.39a.46.46,0,0,1-.4-.23.45.45,0,0,1,.17-.62l18.51-10.69a.47.47,0,0,1,.63.17.46.46,0,0,1-.17.62l-18.52,10.69A.46.46,0,0,1,331.92,179.39Z" style="fill:#e0e0e0"></path><path d="M331.92,175.12a.46.46,0,0,1-.4-.23.45.45,0,0,1,.17-.62l18.51-10.69a.46.46,0,1,1,.46.79l-18.52,10.69A.46.46,0,0,1,331.92,175.12Z" style="fill:#e0e0e0"></path><path d="M331.92,170.84a.47.47,0,0,1-.4-.22.46.46,0,0,1,.17-.63L350.2,159.3a.47.47,0,0,1,.63.17.46.46,0,0,1-.17.62l-18.52,10.69A.46.46,0,0,1,331.92,170.84Z" style="fill:#0077FD"></path></g><g id="freepik--speech-bubble--inject-101"><path d="M298.1,221.86l-24.89,14.37a5.22,5.22,0,0,0-2.37,4.1v20.18c0,1.51,1.06,2.13,2.37,1.37l9.17-5.3,2.46,4.25a1.14,1.14,0,0,0,2.06-.2l2.89-8.33,8.31-4.79a5.22,5.22,0,0,0,2.37-4.1V223.22C300.47,221.71,299.41,221.1,298.1,221.86Z" style="fill:#fafafa"></path><path d="M272.15,262.74a1.78,1.78,0,0,1-.88-.23,2.18,2.18,0,0,1-1-2V240.33a5.78,5.78,0,0,1,2.63-4.57l24.89-14.37a2,2,0,0,1,3.17,1.83v20.19a5.73,5.73,0,0,1-2.64,4.56l-8.13,4.69-2.82,8.14a1.66,1.66,0,0,1-1.43,1.12,1.65,1.65,0,0,1-1.61-.83l-2.18-3.79-8.71,5A2.64,2.64,0,0,1,272.15,262.74Zm26.21-40.42-24.88,14.37a4.71,4.71,0,0,0-2.11,3.64v20.18a.93.93,0,0,0,1.57.91l9.64-5.57,2.72,4.71a.57.57,0,0,0,.58.3.58.58,0,0,0,.52-.41l3-8.51,8.48-4.89a4.72,4.72,0,0,0,2.1-3.64V223.22a1.2,1.2,0,0,0-.42-1.07,1.18,1.18,0,0,0-1.15.17Z" style="fill:#e0e0e0"></path><path d="M276.4,254.08a.46.46,0,0,1-.4-.23.45.45,0,0,1,.17-.62l18.51-10.69a.46.46,0,1,1,.46.79L276.62,254A.46.46,0,0,1,276.4,254.08Z" style="fill:#0077FD"></path><path d="M276.4,249.81a.46.46,0,0,1-.4-.23.45.45,0,0,1,.17-.62l18.51-10.69a.46.46,0,1,1,.46.79l-18.52,10.69A.46.46,0,0,1,276.4,249.81Z" style="fill:#e0e0e0"></path><path d="M276.4,245.53a.46.46,0,0,1-.4-.23.45.45,0,0,1,.17-.62L294.68,234a.46.46,0,0,1,.63.17.46.46,0,0,1-.17.62l-18.52,10.69A.46.46,0,0,1,276.4,245.53Z" style="fill:#e0e0e0"></path><path d="M276.4,241.26a.46.46,0,0,1-.4-.23.45.45,0,0,1,.17-.62l18.51-10.69a.46.46,0,1,1,.46.79L276.62,241.2A.46.46,0,0,1,276.4,241.26Z" style="fill:#e0e0e0"></path></g><g id="freepik--speech-bubble--inject-101"><path d="M242.57,283.85l-24.89,14.37a5.22,5.22,0,0,0-2.37,4.1V322.5c0,1.51,1.06,2.13,2.37,1.37l9.17-5.3,2.46,4.25a1.15,1.15,0,0,0,2.07-.2l2.88-8.33,8.31-4.79a5.22,5.22,0,0,0,2.37-4.1V285.21C244.94,283.7,243.88,283.09,242.57,283.85Z" style="fill:#fafafa"></path><path d="M216.62,324.73a1.81,1.81,0,0,1-.88-.23,2.18,2.18,0,0,1-1-2V302.32a5.76,5.76,0,0,1,2.64-4.57l24.88-14.37a2,2,0,0,1,3.17,1.83V305.4a5.74,5.74,0,0,1-2.63,4.56l-8.14,4.69-2.82,8.14a1.67,1.67,0,0,1-3,.29l-2.19-3.79-8.71,5A2.64,2.64,0,0,1,216.62,324.73Zm26.22-40.42L218,298.68a4.7,4.7,0,0,0-2.1,3.64V322.5a1.21,1.21,0,0,0,.42,1.08,1.24,1.24,0,0,0,1.15-.17l9.63-5.57,2.72,4.71a.61.61,0,0,0,1.1-.11l2.95-8.51L242.3,309a4.73,4.73,0,0,0,2.11-3.64V285.21a1.2,1.2,0,0,0-.43-1.07,1.16,1.16,0,0,0-1.14.17Z" style="fill:#e0e0e0"></path><path d="M220.87,316.07a.45.45,0,0,1-.23-.85l18.52-10.69a.45.45,0,1,1,.45.79L221.1,316A.49.49,0,0,1,220.87,316.07Z" style="fill:#e0e0e0"></path><path d="M220.87,311.8a.46.46,0,0,1-.4-.23.46.46,0,0,1,.17-.62l18.52-10.69a.45.45,0,0,1,.62.16.47.47,0,0,1-.17.63L221.1,311.74A.49.49,0,0,1,220.87,311.8Z" style="fill:#e0e0e0"></path><path d="M220.87,307.52a.45.45,0,0,1-.23-.85L239.16,296a.45.45,0,0,1,.45.79L221.1,307.46A.49.49,0,0,1,220.87,307.52Z" style="fill:#0077FD"></path><path d="M220.87,303.25a.46.46,0,0,1-.4-.23.46.46,0,0,1,.17-.62l18.52-10.69a.46.46,0,0,1,.62.16.47.47,0,0,1-.17.63L221.1,303.19A.49.49,0,0,1,220.87,303.25Z" style="fill:#e0e0e0"></path></g><g id="freepik--speech-bubble--inject-101"><path d="M409.19,59.1,384.3,73.47a5.22,5.22,0,0,0-2.37,4.1V97.76c0,1.51,1.06,2.12,2.37,1.36l9.17-5.3,2.46,4.25a1.14,1.14,0,0,0,2.07-.2l2.88-8.33,8.31-4.79a5.22,5.22,0,0,0,2.37-4.1V60.47C411.56,59,410.5,58.34,409.19,59.1Z" style="fill:#fafafa"></path><path d="M383.24,100a1.81,1.81,0,0,1-.88-.23,2.17,2.17,0,0,1-1-2V77.57A5.73,5.73,0,0,1,384,73l24.88-14.37a2,2,0,0,1,3.17,1.83V80.65a5.78,5.78,0,0,1-2.63,4.57l-8.14,4.68L398.5,98a1.65,1.65,0,0,1-1.42,1.12,1.63,1.63,0,0,1-1.61-.83l-2.19-3.78-8.71,5A2.64,2.64,0,0,1,383.24,100Zm26.22-40.42L384.57,73.93a4.72,4.72,0,0,0-2.1,3.64V97.76a.93.93,0,0,0,1.57.9l9.63-5.57,2.72,4.71a.57.57,0,0,0,.58.3.58.58,0,0,0,.52-.4l2.95-8.52,8.48-4.89A4.73,4.73,0,0,0,411,80.65V60.47a.93.93,0,0,0-1.57-.91Z" style="fill:#e0e0e0"></path><path d="M395.25,87a4,4,0,0,1,1.53-3.14c.81-.46,1.46.22,1.46,1.41a4,4,0,0,1-1.46,3.2C395.92,89,395.25,88.28,395.25,87Zm.18-15.46L398.14,70l-.54,11.58-1.63.94Z" style="fill:#0077FD"></path></g></g></svg> 